<svg xmlns="http://www.w3.org/2000/svg" xmlns:xlink="http://www.w3.org/1999/xlink" viewBox="0 0 148.719 138.953">
  <defs>
    <style>
      .cls-1 {
        fill: url(#linear-gradient);
      }

      .cls-2 {
        fill: url(#linear-gradient-2);
      }

      .cls-3 {
        fill: url(#linear-gradient-3);
      }

      .cls-4 {
        fill: #fafafc;
      }
    </style>
    <linearGradient id="linear-gradient" x1="0.216" y1="0.977" x2="0.624" y2="-0.139" gradientUnits="objectBoundingBox">
      <stop offset="0.4" stop-color="#050099"/>
      <stop offset="0.93" stop-color="#1b1464"/>
    </linearGradient>
    <linearGradient id="linear-gradient-2" x1="0.258" y1="1.111" x2="0.67" y2="-0.039" xlink:href="#linear-gradient"/>
    <linearGradient id="linear-gradient-3" x1="0.33" y1="1.039" x2="0.742" y2="-0.111" xlink:href="#linear-gradient"/>
  </defs>
  <g id="ucs_logo" data-name="ucs logo" transform="translate(6.547 9.715)">
    <g id="Layer_1" data-name="Layer 1" transform="translate(-6.547 -9.715)">
      <ellipse id="Ellipse_94" data-name="Ellipse 94" class="cls-1" cx="59.209" cy="46.425" rx="59.209" ry="46.425" transform="translate(0 58.006) rotate(-29.33)"/>
      <path id="Path_1284" data-name="Path 1284" class="cls-2" d="M58.22,43.472C89.628,25.828,125.874,29.6,143.233,51.11c-.441-.942-.915-1.868-1.432-2.788-15.034-26.8-54.983-32.963-89.168-13.753S2.968,91.076,18,117.876A44.805,44.805,0,0,0,22.151,124C9.615,97.46,25.2,62.021,58.22,43.472Z" transform="translate(-8.723 -18.161)"/>
      <path id="Path_1285" data-name="Path 1285" class="cls-3" d="M155.872,81.01a43.482,43.482,0,0,0-4.15-6.12c12.541,26.547-3.047,61.975-36.063,80.524C84.251,173.063,48,169.3,30.64,147.781c.447.937.92,1.868,1.437,2.783,15.071,26.805,54.978,32.963,89.168,13.758S170.932,107.815,155.872,81.01Z" transform="translate(-17.212 -41.94)"/>
    </g>
    <g id="Layer_2" data-name="Layer 2" transform="translate(28.675 32.59)">
      <path id="Path_1287" data-name="Path 1287" class="cls-4" d="M132.68,146.72Z" transform="translate(-99.55 -117.412)"/>
      <path id="Path_1288" data-name="Path 1288" class="cls-4" d="M129.79,124.042a3.389,3.389,0,0,1,2.923-2.729h14.076a1.782,1.782,0,0,0,1.782-1.776V118a1.539,1.539,0,0,0-1.545-1.539H126.5A1.539,1.539,0,0,0,124.956,118v14.242a1.545,1.545,0,0,0,1.545,1.545H138.45c2.013.42,4.769,1.685,5.286,3.326v2.153h0c-.657,2.035-3.133,2.8-5.485,3.047h-3.768l-.953-.038.328.038h-7.326a3.811,3.811,0,0,1-6.373,0h-7.988c-2.594-.614-6.707-1.932-7.907-7.406v7.406h0V134.9a15.884,15.884,0,0,1-.334-3.262c.054-6.212,4.99-10.351,8.219-10.3l8.763-.043a1.782,1.782,0,0,0,1.782-1.776v-1.534a1.545,1.545,0,0,0-1.545-1.539H100.6a1.539,1.539,0,0,0-1.545,1.539v24.582H96.4a.032.032,0,0,1-.032-.032V117.675a1.545,1.545,0,0,0-1.539-1.545H93.059a1.545,1.545,0,0,0-1.545,1.545V131.67s-.059,1.582-.285,4.107a7.372,7.372,0,0,1-7.659,6.879c-5.21-.086-7.245-4.112-7.589-7.3h0V117.675a1.55,1.55,0,0,0-1.545-1.545h-1.76a1.545,1.545,0,0,0-1.545,1.545v27.92a1.539,1.539,0,0,0,1.545,1.523H94.819a1.75,1.75,0,0,1,.065-.291,3.073,3.073,0,0,1,5.953.35h19.657a3.805,3.805,0,0,1,6.5,0h20.034a1.539,1.539,0,0,0,1.545-1.513v-15.2a1.539,1.539,0,0,0-1.545-1.545H135.339a14.771,14.771,0,0,1-2.562-.194c-1.34-.463-2.691-.732-2.987-2.691v-1.975Z" transform="translate(-71.13 -103.287)"/>
    </g>
  </g>
</svg>
